<svg width="29" height="24" viewBox="0 0 29 24" fill="none" xmlns="http://www.w3.org/2000/svg">
<path d="M27.8138 0.781372C27.4687 0.363098 26.9519 0.132812 26.3583 0.132812C26.0357 0.132812 25.6939 0.200104 25.3425 0.333191L1.42944 9.38077C0.160399 9.86078 -0.0105166 10.5811 0.000475399 10.9678C0.0114674 11.3544 0.223334 12.0641 1.51781 12.4723C1.52557 12.4747 1.53333 12.477 1.54109 12.4792L6.5013 13.8861L9.18379 21.4889C9.54955 22.5254 10.3705 23.1693 11.3266 23.1693C11.9294 23.1693 12.5224 22.9189 13.0414 22.4455L16.1094 19.6456L20.5595 23.197C20.5599 23.1975 20.5606 23.1977 20.561 23.1981L20.6032 23.2319C20.6071 23.2349 20.6112 23.2381 20.6151 23.2411C21.1097 23.6213 21.6496 23.8221 22.177 23.8223H22.1773C23.2077 23.8223 24.0282 23.0663 24.2673 21.8965L28.1854 2.72086C28.3427 1.95117 28.2108 1.26245 27.8138 0.781372ZM8.16067 13.6188L17.7304 8.77322L11.7717 15.0488C11.674 15.1516 11.6048 15.2774 11.5708 15.4143L10.4218 20.0273L8.16067 13.6188ZM11.92 21.2386C11.8803 21.2747 11.8404 21.3069 11.8005 21.3366L12.8666 17.0573L14.8057 18.605L11.92 21.2386ZM26.5631 2.39508L22.645 21.5709C22.6072 21.7545 22.4868 22.1815 22.177 22.1815C22.024 22.1815 21.8318 22.0988 21.635 21.9486L16.5924 17.9244C16.5918 17.9238 16.5909 17.9231 16.5901 17.9227L13.5897 15.528L22.2068 6.45264C22.4827 6.16211 22.5077 5.71713 22.2661 5.39798C22.0242 5.07883 21.5861 4.97842 21.2276 5.16L7.05478 12.3365L2.02711 10.9107L25.9329 1.86594C26.1348 1.78946 26.2758 1.77344 26.3583 1.77344C26.409 1.77344 26.4991 1.77942 26.5325 1.82022C26.5764 1.87341 26.6325 2.05478 26.5631 2.39508Z" fill="black"/>
</svg>
