<svg width="29" height="18" viewBox="0 0 29 18" fill="none" xmlns="http://www.w3.org/2000/svg">
<path d="M14.6707 17.75C18.7575 17.75 17.3003 15.1857 17.6157 14.4483C17.611 13.8977 17.6063 13.368 17.6252 13.046C17.8841 13.1183 18.495 13.4252 19.7569 14.6408C21.7049 16.5892 22.2028 17.75 23.7766 17.75H26.6734C27.5915 17.75 28.0694 17.3732 28.3084 17.057C28.5391 16.7513 28.7651 16.2147 28.5179 15.3793C27.8717 13.368 24.1026 9.89483 23.8684 9.5285C23.9037 9.46083 23.9602 9.371 23.9896 9.32433H23.9873C24.7312 8.35017 27.5703 4.13383 27.9882 2.44683C27.9894 2.4445 27.9906 2.441 27.9906 2.4375C28.2166 1.6675 28.0094 1.16817 27.7952 0.885833C27.4726 0.4635 26.9594 0.25 26.2661 0.25H23.3693C22.3994 0.25 21.6637 0.734167 21.2918 1.61733C20.6691 3.1865 18.9199 6.4135 17.6087 7.55567C17.5687 5.9375 17.5957 4.702 17.6169 3.78383C17.6593 1.993 17.7958 0.25 15.9207 0.25H11.3678C10.1931 0.25 9.06894 1.52167 10.286 3.03133C11.3501 4.35433 10.6686 5.09167 10.8981 8.762C10.0035 7.81117 8.41212 5.24333 7.28683 1.9615C6.97137 1.07367 6.49348 0.251167 5.14807 0.251167H2.25127C1.07654 0.251167 0.375 0.885833 0.375 1.94867C0.375 4.33567 5.70601 17.75 14.6707 17.75ZM5.14807 2.00117C5.4035 2.00117 5.4294 2.00117 5.61891 2.53433C6.77127 5.89783 9.35615 10.8748 11.2442 10.8748C12.6626 10.8748 12.6626 9.434 12.6626 8.8915L12.6614 4.5725C12.5837 3.14333 12.0587 2.43167 11.7138 2L15.8431 2.00467C15.8454 2.0245 15.8195 6.78217 15.8548 7.93483C15.8548 9.57167 17.1661 10.5097 19.213 8.45633C21.373 6.04017 22.8667 2.42817 22.9267 2.28117C23.015 2.07117 23.0915 2 23.3693 2H26.2661H26.2779C26.2767 2.0035 26.2767 2.007 26.2755 2.0105C26.0107 3.2355 23.3964 7.13917 22.5218 8.35133C22.5077 8.37 22.4947 8.38983 22.4818 8.40967C22.0969 9.03267 21.7838 9.721 22.5348 10.6893H22.5359C22.6042 10.771 22.782 10.9623 23.0409 11.2283C23.846 12.052 26.6075 14.8683 26.8523 15.9883C26.6899 16.014 26.5133 15.9953 23.7766 16.0012C23.1939 16.0012 22.7384 15.1378 20.9999 13.3995C19.4367 11.8922 18.422 11.2762 17.498 11.2762C15.7042 11.2762 15.8348 12.7193 15.8513 14.4647C15.8572 16.357 15.8454 15.7585 15.8584 15.8775C15.7536 15.9183 15.4534 16 14.6707 16C7.20208 16 2.33837 4.2505 2.15122 2.00467C2.21596 1.99883 3.10701 2.00233 5.14807 2.00117Z" fill="black"/>
</svg>
